<svg width="23" height="19" viewBox="0 0 23 19" fill="none" xmlns="http://www.w3.org/2000/svg">
<path d="M8.335 9.50201H10.505C11.096 9.50201 11.6811 9.61841 12.2271 9.84456C12.773 10.0707 13.2691 10.4022 13.687 10.82C14.1048 11.2379 14.4363 11.734 14.6625 12.2799C14.8886 12.8259 15.005 13.4111 15.005 14.002H8.004V15.002H16.004V14.002C15.9999 12.9383 15.693 11.8977 15.119 11.002H18.005C18.9504 11.0018 19.8764 11.2697 20.6757 11.7745C21.475 12.2793 22.1149 13.0003 22.521 13.854C20.156 16.974 16.327 19.003 12.005 19.003C9.24401 19.003 6.905 18.413 5.005 17.378V8.07401C6.22148 8.24814 7.3703 8.74078 8.335 9.50201ZM4.005 17.002C4.005 17.2672 3.89965 17.5216 3.71211 17.7091C3.52457 17.8967 3.27022 18.002 3.005 18.002H1.00501C0.739789 18.002 0.485434 17.8967 0.297898 17.7091C0.110362 17.5216 0.00500488 17.2672 0.00500488 17.002V8.00201C0.00500488 7.7368 0.110362 7.48244 0.297898 7.29491C0.485434 7.10737 0.739789 7.00201 1.00501 7.00201H3.005C3.27022 7.00201 3.52457 7.10737 3.71211 7.29491C3.89965 7.48244 4.005 7.7368 4.005 8.00201V17.002ZM17.005 3.00201C17.8007 3.00201 18.5637 3.31808 19.1263 3.88069C19.6889 4.4433 20.005 5.20636 20.005 6.00201C20.005 6.79766 19.6889 7.56073 19.1263 8.12333C18.5637 8.68594 17.8007 9.00201 17.005 9.00201C16.2094 9.00201 15.4463 8.68594 14.8837 8.12333C14.3211 7.56073 14.005 6.79766 14.005 6.00201C14.005 5.20636 14.3211 4.4433 14.8837 3.88069C15.4463 3.31808 16.2094 3.00201 17.005 3.00201ZM10.005 0.00201416C10.8007 0.00201416 11.5637 0.318085 12.1263 0.880694C12.6889 1.4433 13.005 2.20636 13.005 3.00201C13.005 3.79766 12.6889 4.56073 12.1263 5.12333C11.5637 5.68594 10.8007 6.00201 10.005 6.00201C9.20936 6.00201 8.44629 5.68594 7.88368 5.12333C7.32107 4.56073 7.005 3.79766 7.005 3.00201C7.005 2.20636 7.32107 1.4433 7.88368 0.880694C8.44629 0.318085 9.20936 0.00201416 10.005 0.00201416Z" fill="black"/>
</svg>
