<svg width="24" height="24" viewBox="0 0 24 24" fill="none" xmlns="http://www.w3.org/2000/svg">
<path d="M19.616 19.6C18.2111 21.0048 16.4443 21.9927 14.5118 22.454C12.5794 22.9154 10.5569 22.8321 8.66888 22.2135C6.78088 21.5949 5.10126 20.4652 3.81653 18.9497C2.5318 17.4342 1.69221 15.5923 1.39101 13.6285M1.37401 13.5135C0.99254 10.8256 1.64231 8.09284 3.1928 5.86428C4.74329 3.63572 7.07964 2.07641 9.73251 1.49958C12.3854 0.922747 15.1583 1.37113 17.4942 2.75465C19.8301 4.13817 21.5559 6.35435 22.325 8.95799C22.624 9.98599 22.165 10.1565 21.825 10.216C21.2575 10.3155 21.191 9.87549 20.9085 9.31049C20.5987 8.61068 20.1792 7.96474 19.666 7.39699C18.84 6.56346 17.899 5.85242 16.8715 5.28549C16.1027 4.83655 15.2746 4.4979 14.4115 4.27949C13.5304 4.02936 12.6172 3.91074 11.7015 3.92749C10.0345 3.99234 8.42855 4.5717 7.10409 5.58598C5.77963 6.60026 4.80168 7.99972 4.30455 9.59214C3.80742 11.1846 3.8155 12.8919 4.32767 14.4795C4.83985 16.0672 5.83101 17.4573 7.16501 18.459M17.7275 17.7115C16.3627 19.0763 14.5542 19.9074 12.6296 20.0541C10.705 20.2009 8.7915 19.6536 7.23551 18.5115M17.683 17.756C17.8946 17.5442 18.1665 17.4031 18.4615 17.352C18.6351 17.3197 18.8134 17.3233 18.9855 17.3626C19.1576 17.4019 19.3199 17.4761 19.4622 17.5805C19.6046 17.6849 19.724 17.8174 19.8131 17.9698C19.9023 18.1222 19.9592 18.2912 19.9805 18.4665C20.0053 18.6808 19.981 18.898 19.9094 19.1015C19.8377 19.305 19.7206 19.4895 19.567 19.641M21.999 11.3475C22.693 11.3475 22.774 12.6735 22.674 13.195C22.538 13.904 22.341 14.8515 21.738 14.765C21.1035 14.674 21.1245 13.405 21.173 12.916C21.218 12.4625 21.376 11.3475 21.999 11.3475Z" stroke="black" stroke-width="0.5" stroke-linecap="round" stroke-linejoin="round"/>
<path d="M12.4733 4.58652C12.1171 4.58652 11.7868 4.77231 11.5301 5.10783C11.3101 5.39524 11.1548 5.79019 11.1148 6.23551C11.452 6.08638 11.7951 5.99605 12.1384 5.96305V6.52023C11.8065 6.56192 11.4721 6.67184 11.1346 6.85415C11.1942 7.23217 11.3376 7.56564 11.5301 7.81727C11.7868 8.15276 12.117 8.33858 12.4733 8.33858C12.8295 8.33858 13.1607 8.15276 13.4174 7.81727C13.6041 7.57326 13.7439 7.25215 13.8062 6.88824C13.4408 6.68141 13.0738 6.55532 12.7041 6.51454V5.96017C13.0878 5.99308 13.4676 6.09689 13.8346 6.2686C13.7997 5.80972 13.6428 5.40236 13.4175 5.1078C13.1607 4.77231 12.8295 4.58649 12.4732 4.58649L12.4733 4.58652ZM11.0628 8.13608C10.7466 8.28139 10.506 8.4746 10.3788 8.69523L10.3674 8.69235L9.10731 10.6431L7.57378 9.978C6.68449 9.49006 5.70972 10.7046 6.64668 11.24L9.50661 12.574L10.6579 11.0584C11.224 12.0787 11.1656 13.0997 10.3258 14.1207C10.0732 14.1013 9.83024 14.0917 9.60025 14.0933C8.37987 14.1017 7.51314 14.4037 7.36283 14.9646L7.36374 14.9646C7.22932 15.4665 7.6965 16.0747 8.54822 16.6381C10.2337 17.5251 11.4357 17.8027 13.3002 17.92H13.3475L13.3607 17.9238C13.3736 17.9246 13.3856 17.9259 13.3986 17.9267L13.3976 17.9362L16.1847 18.8056L15.5129 17.1793L10.0581 15.3676L10.236 14.8312L12.4099 15.5531L14.5849 14.8312L14.7627 15.3676L13.3068 15.8511L16.1657 16.8009C17.1797 16.194 17.7559 15.5153 17.6085 14.9646C17.4283 14.2923 16.2181 13.9927 14.6038 14.1236C13.8048 13.1181 13.8108 12.1131 14.3153 11.1076L15.4288 12.574L18.2887 11.24C19.2257 10.7046 18.2509 9.49006 17.3615 9.97803L15.827 10.6431L14.5678 8.69235H14.566C14.4383 8.47299 14.1986 8.28075 13.8839 8.13608C13.8779 8.14425 13.872 8.15264 13.8659 8.16069C13.5248 8.60647 13.0294 8.90427 12.4733 8.90427C11.9173 8.90427 11.4219 8.60647 11.0807 8.16066C11.0746 8.15264 11.0688 8.14422 11.0628 8.13608ZM9.13477 17.5511L8.62859 18.7772L10.744 18.1178C10.2104 17.9794 9.68653 17.7959 9.13477 17.5511Z" fill="black"/>
</svg>
