<svg width="53" height="46" viewBox="0 0 53 46" fill="none" xmlns="http://www.w3.org/2000/svg">
<path d="M45.8176 0.483704H7.25102C3.47146 0.483704 0.397461 3.1517 0.397461 6.43352V39.9028C0.397461 43.1839 3.47229 45.8534 7.25102 45.8534H45.8176C49.5972 45.8534 52.6712 43.1839 52.6712 39.9028V6.43352C52.6712 3.15242 49.5972 0.483704 45.8176 0.483704ZM28.7897 6.37673C29.3038 6.37673 29.8129 6.46464 30.2878 6.63544C30.7628 6.80623 31.1943 7.05657 31.5577 7.37215C31.9212 7.68772 32.2094 8.06235 32.406 8.47464C32.6026 8.88693 32.7037 9.32879 32.7034 9.77499C32.7034 11.6516 31.3254 13.1732 28.7897 13.1732C28.2756 13.1732 27.7664 13.0853 27.2914 12.9146C26.8163 12.7438 26.3847 12.4935 26.0211 12.1779C25.6576 11.8624 25.3692 11.4877 25.1724 11.0754C24.9756 10.6631 24.8744 10.2212 24.8744 9.77499C24.8744 9.32872 24.9756 8.88682 25.1724 8.47453C25.3692 8.06224 25.6576 7.68762 26.0211 7.37206C26.3847 7.0565 26.8163 6.80619 27.2914 6.63541C27.7664 6.46463 28.2756 6.37673 28.7897 6.37673ZM18.68 22.2058L20.6865 17.0595C21.2231 15.7809 22.5738 14.2758 24.6036 14.2758H32.9742C35.004 14.2758 36.3555 15.7809 36.8913 17.0595L38.8978 22.2058C39.0908 22.7779 38.8821 23.3982 38.3148 23.7475C38.049 23.9114 37.6921 24.0206 37.389 24.0206C37.0329 24.0206 36.676 23.9157 36.425 23.7626L31.0224 20.4685C30.7149 20.2733 30.5081 19.9811 30.4465 19.6549C30.3849 19.3286 30.4735 18.9944 30.6931 18.7243C30.9127 18.4541 31.2457 18.2697 31.6205 18.2106C31.9953 18.1516 32.3818 18.2227 32.6968 18.4086L35.8594 20.4829C36.0482 20.6051 36.3149 20.5713 36.4582 20.4082C36.5157 20.3266 36.5387 20.2302 36.5229 20.1356C36.5072 20.0409 36.4538 19.954 36.372 19.89L33.8661 18.2541V15.1577L28.7906 15.875L23.715 15.1577V18.2541L21.2082 19.89C21.1271 19.9544 21.0743 20.0413 21.0588 20.1358C21.0432 20.2303 21.0659 20.3266 21.1229 20.4082C21.1908 20.4867 21.2918 20.5386 21.4037 20.5526C21.5156 20.5666 21.6294 20.5416 21.72 20.4829L24.8835 18.4086C25.1984 18.2227 25.585 18.1516 25.9597 18.2106C26.3345 18.2697 26.6676 18.4541 26.8872 18.7243C27.1068 18.9944 27.1953 19.3286 27.1337 19.6549C27.0722 19.9811 26.8654 20.2733 26.5579 20.4685L21.1552 23.7626C20.8699 23.9296 20.5338 24.0194 20.1896 24.0206C19.8874 24.0206 19.5296 23.9106 19.2655 23.7475C18.6974 23.3982 18.4879 22.7772 18.6808 22.2058H18.68ZM35.4363 24.063L24.6532 22.5235L26.2002 21.5675L28.7897 21.8787L31.376 21.5675L35.4363 24.063ZM5.98979 10.1315C5.98979 7.48648 8.46754 5.33527 11.5134 5.33527C14.5592 5.33527 17.0395 7.48648 17.0395 10.1315C17.0395 12.7765 14.5592 14.9263 11.5134 14.9263C10.049 14.9244 8.64516 14.4186 7.60974 13.5198C6.57432 12.621 5.99176 11.4025 5.98979 10.1315ZM28.7417 36.6994H16.0176C15.6888 36.6988 15.3738 36.5851 15.1414 36.3833C14.909 36.1815 14.7783 35.908 14.7779 35.6227V25.9483C14.7779 25.356 15.3319 24.8738 16.0176 24.8738H18.4978C19.181 24.8738 19.7375 25.356 19.7375 25.9483V31.3217H28.7425L28.7417 36.6994ZM34.0392 39.146C34.0391 39.3895 33.9837 39.6306 33.8763 39.8556C33.7688 40.0805 33.6113 40.2849 33.4128 40.457C33.2144 40.6291 32.9788 40.7657 32.7195 40.8588C32.4603 40.9519 32.1824 40.9997 31.9018 40.9996C31.6212 40.9998 31.3432 40.952 31.0839 40.859C30.8245 40.7659 30.5888 40.6294 30.3903 40.4573C30.1917 40.2851 30.0342 40.0807 29.9266 39.8557C29.8191 39.6307 29.7637 39.3896 29.7636 39.146V30.9343C29.7825 30.4531 30.016 29.9972 30.4149 29.6626C30.8137 29.328 31.3467 29.141 31.9014 29.141C32.4561 29.141 32.9891 29.328 33.3879 29.6626C33.7868 29.9972 34.0203 30.4531 34.0392 30.9343V39.146ZM33.1374 28.5645L23.8019 27.2291C23.253 27.1393 22.7664 26.8667 22.4461 26.4695C22.1258 26.0723 21.9973 25.5821 22.0881 25.1038C22.1789 24.6255 22.4817 24.1969 22.9318 23.9099C23.382 23.6228 23.9436 23.5 24.4967 23.5678L33.8322 24.904C34.1091 24.9432 34.3744 25.0295 34.6129 25.1579C34.8514 25.2862 35.0584 25.4542 35.222 25.6521C35.3856 25.8499 35.5026 26.0739 35.5664 26.3111C35.6302 26.5483 35.6394 26.794 35.5936 27.0343C35.501 27.5196 35.1904 27.9532 34.7299 28.2399C34.2694 28.5267 33.6967 28.6439 33.1374 28.5645ZM42.8587 35.6227C42.8583 35.908 42.7276 36.1815 42.4952 36.3833C42.2628 36.5851 41.9478 36.6988 41.619 36.6994H35.0644V31.3217H37.8991V25.9483C37.8991 25.356 38.4556 24.8738 39.1371 24.8738H41.619C42.3014 24.8738 42.8587 25.356 42.8587 25.9483V35.6227Z" fill="black"/>
</svg>
