<?xml version="1.0" encoding="UTF-8"?>
<svg xmlns="http://www.w3.org/2000/svg" viewBox="0 0 52.27 45.37">
  <defs>
    <style>
      .cls-1 {
        fill: #000;
        stroke-width: 0px;
      }
    </style>
  </defs>
  <g id="Layer_1" data-name="Layer 1">
    <path class="cls-1" d="M45.42,0H6.85C3.07,0,0,2.67,0,5.95v33.47c0,3.28,3.07,5.95,6.85,5.95h38.57c3.78,0,6.85-2.67,6.85-5.95V5.95c0-3.28-3.07-5.95-6.85-5.95ZM28.39,5.89c.51,0,1.02.09,1.5.26.48.17.91.42,1.27.74.36.32.65.69.85,1.1.2.41.3.85.3,1.3,0,1.88-1.38,3.4-3.91,3.4-.51,0-1.02-.09-1.5-.26-.48-.17-.91-.42-1.27-.74-.36-.32-.65-.69-.85-1.1s-.3-.85-.3-1.3.1-.89.3-1.3c.2-.41.49-.79.85-1.1.36-.32.8-.57,1.27-.74.47-.17.98-.26,1.5-.26ZM18.28,21.72l2.01-5.15c.54-1.28,1.89-2.78,3.92-2.78h8.37c2.03,0,3.38,1.51,3.92,2.78l2.01,5.15c.19.57-.02,1.19-.58,1.54-.27.16-.62.27-.93.27-.36,0-.71-.1-.96-.26l-5.4-3.29c-.31-.2-.51-.49-.58-.81-.06-.33.03-.66.25-.93.22-.27.55-.45.93-.51.37-.06.76.01,1.08.2l3.16,2.07c.19.12.46.09.6-.07.06-.08.08-.18.06-.27-.02-.09-.07-.18-.15-.25l-2.51-1.64v-3.1l-5.08.72-5.08-.72v3.1l-2.51,1.64c-.08.06-.13.15-.15.25-.02.09,0,.19.06.27.07.08.17.13.28.14s.23-.01.32-.07l3.16-2.07c.31-.19.7-.26,1.08-.2.37.06.71.24.93.51.22.27.31.6.25.93-.06.33-.27.62-.58.81l-5.4,3.29c-.29.17-.62.26-.97.26-.3,0-.66-.11-.92-.27-.57-.35-.78-.97-.58-1.54h0ZM35.04,23.58l-10.78-1.54,1.55-.96,2.59.31,2.59-.31,4.06,2.5ZM5.59,9.65c0-2.65,2.48-4.8,5.52-4.8s5.53,2.15,5.53,4.8-2.48,4.79-5.53,4.79c-1.46,0-2.87-.51-3.9-1.41s-1.62-2.12-1.62-3.39ZM28.34,36.22h-12.72c-.33,0-.64-.11-.88-.32-.23-.2-.36-.48-.36-.76v-9.67c0-.59.55-1.07,1.24-1.07h2.48c.68,0,1.24.48,1.24,1.07v5.37h9.01v5.38ZM33.64,38.66c0,.24-.06.48-.16.71-.11.22-.26.43-.46.6-.2.17-.43.31-.69.4-.26.09-.54.14-.82.14-.28,0-.56-.05-.82-.14-.26-.09-.5-.23-.69-.4-.2-.17-.36-.38-.46-.6-.11-.23-.16-.47-.16-.71v-8.21c.02-.48.25-.94.65-1.27.4-.33.93-.52,1.49-.52s1.09.19,1.49.52c.4.33.63.79.65,1.27v8.21ZM32.74,28.08l-9.34-1.34c-.55-.09-1.04-.36-1.36-.76-.32-.4-.45-.89-.36-1.37.09-.48.39-.91.84-1.19.45-.29,1.01-.41,1.56-.34l9.34,1.34c.28.04.54.13.78.25.24.13.45.3.61.49.16.2.28.42.34.66.06.24.07.48.03.72-.09.49-.4.92-.86,1.21-.46.29-1.03.4-1.59.32ZM42.46,35.14c0,.29-.13.56-.36.76-.23.2-.55.32-.88.32h-6.55v-5.38h2.83v-5.37c0-.59.56-1.07,1.24-1.07h2.48c.68,0,1.24.48,1.24,1.07v9.67Z"/>
  </g>
  <g id="Layer_2" data-name="Layer 2">
    <path class="cls-1" d="M11.12,6.04c-1.1,0-2.16.38-2.94,1.06-.78.68-1.22,1.59-1.22,2.55,0,1.99,1.86,3.61,4.16,3.61,1.1,0,2.16-.38,2.94-1.06.78-.68,1.22-1.59,1.22-2.55,0-.96-.44-1.87-1.22-2.55-.78-.68-1.84-1.06-2.94-1.06ZM13.87,9.16l-2.73,1.12c-.06.03-.13.04-.2.03-.07,0-.14-.02-.19-.06-.05-.03-.09-.06-.12-.11-.03-.04-.05-.09-.06-.14v-2.79c0-.1.04-.19.12-.26.08-.07.18-.11.29-.11s.22.04.29.11c.08.07.12.16.12.26v2.16l2.13-.87c.1-.04.21-.05.32-.01.05.02.1.04.14.07.04.03.07.07.1.11.02.04.04.09.04.14,0,.05,0,.09-.02.14-.02.04-.05.09-.08.12-.04.04-.08.06-.13.08Z"/>
  </g>
</svg>